# xmcd
#
# Track frame offsets: 
#        150
#        19390
#        35752
#        56932
#        78932
#        94737
#        118250
#        155037
#        175202
#
# Disc length: 2567 seconds
#
# Revision: 3
# Processed by: cddbd v1.5.2PL0 Copyright (c) Steve Scherf et al.
# Submitted via: ExactAudioCopyFreeDBPlugin 1.0
#
DISCID=7b0a0509
DTITLE=Muskee - 'Sky Songs' On The Spot
DYEAR=1994
DGENRE=Blues
TTITLE0=Bluesman
TTITLE1=Armadillo On Elmstreet
TTITLE2=At The End Of the Bar
TTITLE3='Sky Songs' On The Spot
TTITLE4=Travellin' With The Blues
TTITLE5=No News
TTITLE6=Lost In Myself
TTITLE7=It's Your Thing
TTITLE8=One More
EXTD=YEAR: 1994
EXTT0=
EXTT1=
EXTT2=
EXTT3=
EXTT4=
EXTT5=
EXTT6=
EXTT7=
EXTT8=
PLAYORDER=
